<svg width="32" height="32" viewBox="0 0 32 32" fill="none" xmlns="http://www.w3.org/2000/svg">
<path d="M8.03484 6.73768C8.42465 6.42026 8.71753 6.0516 9.19336 5.85242L22.2013 14.7547C22.0492 15.059 21.7798 15.3321 21.5825 15.6084C21.2348 16.0952 21.0633 16.9082 21.1534 17.5053C21.2764 18.3201 21.2002 19.1958 20.8282 19.9398C20.5637 20.4689 20.149 20.8917 19.8842 21.4213C19.4832 22.2233 19.1753 22.954 18.4525 23.5351C17.9259 23.9584 17.2815 23.7483 16.7316 23.4628C16.3607 23.2702 16.8756 22.4492 16.9891 22.2433C16.9894 22.2427 16.9898 22.242 16.9901 22.2414C16.7232 22.6907 16.4403 23.1681 16.3387 23.666C16.1883 24.4028 16.3755 25.0651 16.551 25.7889C16.614 26.049 16.6253 26.3203 16.6819 26.5838C16.7522 26.9107 16.869 27.211 16.9665 27.5278C17.0416 27.7718 17.0883 28.481 16.6481 28.1443C16.4697 28.0079 16.1723 27.6001 15.939 27.9501C15.6866 28.3286 15.2191 28.38 14.7985 28.2866C14.6203 28.247 14.4557 28.1348 14.2768 28.0901C14.1077 28.0478 13.9439 28.0472 13.771 28.0472C13.631 28.0472 13.6474 27.5828 13.6242 27.4781C13.5685 27.2276 13.5761 26.9671 13.5406 26.7125C13.4801 26.279 13.3803 25.8671 13.3803 25.4275C13.3803 24.9113 13.4179 24.4076 13.378 23.8896C13.3523 23.5554 13.3041 23.2208 13.2326 22.893C13.2505 23.0767 13.2492 23.2753 13.2561 23.4199C13.2729 23.7739 13.3461 24.1102 13.378 24.461C13.4076 24.7862 13.3163 25.1231 13.3012 25.4479C13.2816 25.8706 13.3231 26.2907 13.3374 26.7125C13.3533 27.1838 13.4041 27.664 13.4819 28.1307C13.5552 28.5706 13.5033 28.8184 13.1793 29.1221C12.9397 29.3468 12.5739 29.2667 12.2624 29.2667C12.0805 29.2667 11.8533 29.5742 11.743 29.6845C11.5565 29.871 11.3844 29.9705 11.1242 30.0187C10.7649 30.0852 10.5145 29.9021 10.1893 29.7748C9.87018 29.6499 9.60675 29.4831 9.74213 29.1041C9.85527 28.7873 9.93474 28.4539 9.96796 28.1217C10.0194 27.6068 10.2337 27.055 10.1599 26.5386C10.1289 26.3215 10.1687 26.0662 10.0876 25.8611C10.042 25.7458 9.91425 25.763 9.87537 25.6579C9.87339 25.6525 9.87143 25.6472 9.86948 25.6419C9.84205 25.823 9.80566 26.0041 9.77148 26.1863C9.75829 26.2567 9.74677 26.3295 9.73699 26.404C9.78667 26.4326 9.83085 26.4649 9.86633 26.5025C9.95001 26.5911 9.96397 26.7177 9.9657 26.8322C9.97175 27.2317 9.9834 27.6174 9.9657 28.0156C9.96481 28.0356 9.91774 28.3191 9.89343 28.3137C9.85175 28.3044 9.78484 27.9242 9.77148 27.8575C9.6825 27.4125 9.67535 26.8736 9.73699 26.404C9.55577 26.2999 9.30148 26.2467 9.13012 26.1773C8.71829 26.0106 8.29965 25.8927 7.85191 25.8927C7.14664 25.8927 5.94137 25.8544 5.94137 24.8968C5.94137 24.5427 5.47437 24.1062 5.23226 23.8987C5.13968 23.8193 5.12352 23.6531 5.02675 23.5757C4.91728 23.4881 4.81063 23.3293 4.74221 23.2076C4.58634 22.9305 4.34703 22.6969 4.19569 22.4195C4.04224 22.1381 3.92441 21.8305 3.76661 21.55C3.63529 21.3165 3.49085 21.0754 3.464 20.7935C3.42671 20.4019 3.52172 19.9875 3.4369 19.6011C3.32094 19.0728 3.25126 18.5166 3.17719 17.9796C3.09192 17.3614 2.88923 16.691 3.07782 16.0713C3.24757 15.5136 3.43535 14.9573 3.6424 14.4114C3.86325 13.8292 4.01377 13.2209 4.27925 12.6567C4.46513 12.2617 4.69701 11.9051 4.83931 11.4847C4.95939 11.1299 5.07114 10.7701 5.15096 10.4052C5.21031 10.1339 5.24249 9.82388 5.35647 9.56961C5.50381 9.24093 5.76138 8.95319 5.93912 8.63918C6.16124 8.24677 6.42369 7.84216 6.78824 7.56874C7.18948 7.26781 7.64303 7.05672 8.03484 6.73768Z" fill="#DAD1D1"/>
<path d="M9.19336 5.85242C8.71753 6.0516 8.42465 6.42026 8.03484 6.73768C7.64303 7.05672 7.18948 7.26781 6.78824 7.56874C6.42369 7.84216 6.16124 8.24677 5.93912 8.63918C5.76138 8.95319 5.50381 9.24093 5.35647 9.56961C5.24249 9.82388 5.21031 10.1339 5.15096 10.4052C5.07114 10.7701 4.95939 11.1299 4.83931 11.4847C4.69701 11.9051 4.46513 12.2617 4.27925 12.6567C4.01377 13.2209 3.86325 13.8292 3.6424 14.4114C3.43535 14.9573 3.24757 15.5136 3.07782 16.0713C2.88923 16.691 3.09192 17.3614 3.17719 17.9796C3.25126 18.5166 3.32094 19.0728 3.4369 19.6011C3.52172 19.9875 3.42671 20.4019 3.464 20.7935C3.49085 21.0754 3.63529 21.3165 3.76661 21.55C3.92441 21.8305 4.04224 22.1381 4.19569 22.4195C4.34703 22.6969 4.58634 22.9305 4.74221 23.2076C4.81063 23.3293 4.91728 23.4881 5.02675 23.5757C5.12352 23.6531 5.13968 23.8193 5.23226 23.8987C5.47437 24.1062 5.94137 24.5427 5.94137 24.8968C5.94137 25.8544 7.14664 25.8927 7.85191 25.8927C8.29965 25.8927 8.71829 26.0106 9.13012 26.1773C9.34845 26.2657 9.70141 26.3279 9.86633 26.5025C9.95001 26.5911 9.96397 26.7177 9.9657 26.8322C9.97175 27.2317 9.9834 27.6174 9.9657 28.0156C9.96481 28.0356 9.91774 28.3191 9.89343 28.3137C9.85175 28.3044 9.78484 27.9243 9.77148 27.8575C9.66837 27.3419 9.67515 26.7001 9.77148 26.1863C9.86271 25.6998 9.96977 25.2218 9.87988 24.7275C9.82387 24.4194 9.78099 23.8412 9.55017 23.5847C9.44891 23.4722 9.31966 23.3768 9.21142 23.2686C8.66854 22.7257 8.38433 22.1685 8.18614 21.4168C8.0409 20.8658 7.83574 20.3119 7.64866 19.7727C7.44381 19.1822 7.83045 21.0096 7.94225 21.6245C8.01101 22.0027 8.25728 22.3131 8.43004 22.6408C8.62712 23.0145 8.83656 23.3867 9.08044 23.7293C9.27902 24.0082 9.42273 24.2323 9.54114 24.5739C9.6648 24.9306 9.74501 25.3054 9.87537 25.6579C9.91425 25.763 10.042 25.7458 10.0876 25.8611C10.1687 26.0662 10.1289 26.3215 10.1599 26.5386C10.2337 27.055 10.0194 27.6068 9.96796 28.1217C9.93474 28.4539 9.85527 28.7873 9.74213 29.1041C9.60675 29.4831 9.87018 29.6499 10.1893 29.7748C10.5145 29.9021 10.7649 30.0852 11.1242 30.0187C11.3844 29.9705 11.5565 29.871 11.743 29.6845C11.8533 29.5742 12.0805 29.2667 12.2624 29.2667C12.5739 29.2667 12.9397 29.3468 13.1793 29.1221C13.5033 28.8184 13.5552 28.5706 13.4819 28.1307C13.4041 27.664 13.3533 27.1838 13.3374 26.7125C13.3231 26.2907 13.2816 25.8706 13.3012 25.4479C13.3163 25.1231 13.4076 24.7862 13.378 24.461C13.3461 24.1102 13.2729 23.7739 13.2561 23.4199C13.2443 23.1733 13.2564 22.7697 13.1567 22.5504C13.1456 22.526 13.213 22.8054 13.2177 22.8259C13.2974 23.1752 13.3506 23.5326 13.378 23.8896C13.4179 24.4076 13.3803 24.9113 13.3803 25.4275C13.3803 25.8671 13.4801 26.279 13.5406 26.7125C13.5761 26.9671 13.5685 27.2276 13.6242 27.4781C13.6474 27.5828 13.631 28.0472 13.771 28.0472C13.9439 28.0472 14.1077 28.0478 14.2768 28.0901C14.4557 28.1348 14.6203 28.247 14.7985 28.2866C15.2191 28.38 15.6866 28.3286 15.939 27.9501C16.1723 27.6001 16.4697 28.0079 16.6481 28.1443C17.0883 28.481 17.0416 27.7718 16.9665 27.5278C16.869 27.211 16.7522 26.9107 16.6819 26.5838C16.6253 26.3203 16.614 26.049 16.551 25.7889C16.3755 25.0651 16.1883 24.4028 16.3387 23.666C16.4668 23.0381 16.8831 22.4431 17.1923 21.8955C17.5312 21.2954 17.999 20.7898 18.3937 20.2289C18.6869 19.8124 19.647 18.6444 19.4281 19.1042C19.2759 19.4238 19.0451 19.7224 18.8499 20.0166C18.6813 20.2708 18.5205 20.5493 18.3034 20.7664C17.8252 21.2446 17.3209 21.6414 16.9891 22.2433C16.8756 22.4492 16.3607 23.2702 16.7316 23.4628C17.2815 23.7483 17.9259 23.9584 18.4525 23.5351C19.1753 22.954 19.4832 22.2233 19.8842 21.4213C20.149 20.8917 20.5637 20.4689 20.8282 19.9398C21.2002 19.1958 21.2764 18.3201 21.1534 17.5053C21.0633 16.9082 21.2348 16.0952 21.5825 15.6084C21.7798 15.3321 22.0492 15.059 22.2013 14.7547L9.19336 5.85242Z" stroke="black" stroke-linecap="round"/>
<path d="M10.0328 11.1462C9.94819 11.0118 9.83841 10.735 9.69067 10.6611L10.0328 9.68518L14.335 7.5L17.835 7L22.1567 6L23.835 6.5L25.335 8L25.835 9V10.6611L24.3763 12.1355C24.2353 12.4878 23.8797 12.7363 23.6664 13.0477C23.4782 13.3223 23.2901 13.6226 23.0561 13.8604C22.7704 14.1507 22.5054 14.4849 22.1567 14.7019C22.016 14.7895 21.9095 14.923 21.7745 15.0199C21.6896 15.0808 21.5951 15.1343 21.5143 15.1998C21.3999 15.2924 21.2203 15.2926 21.0935 15.3732C21.0063 15.4287 20.9409 15.4906 20.843 15.5338C20.5705 15.6541 20.2234 15.778 19.9243 15.778C19.1938 15.778 18.4877 15.6407 17.761 15.6061C16.9714 15.5685 16.2061 15.5636 15.4258 15.3877C15.1622 15.3282 14.9085 15.2343 14.6469 15.1709C14.2671 15.0788 13.8835 14.9954 13.505 14.8978C13.2087 14.8215 12.9056 14.7651 12.6121 14.6794C12.4064 14.6195 12.1937 14.6177 11.9905 14.5477C11.8064 14.4843 11.5934 14.4257 11.4396 14.3004C11.3396 14.2189 11.2812 14.1018 11.1907 14.0113C10.9763 13.7969 10.8385 13.5029 10.7041 13.234C10.6397 13.1053 10.5861 12.9447 10.5451 12.8068C10.4381 12.4469 10.3523 12.071 10.2576 11.7067C10.2034 11.4982 10.1487 11.3303 10.0328 11.1462Z" fill="#D4D0CF" stroke="black" stroke-linecap="round"/>
<path d="M19.5775 12.3378C19.6779 12.349 19.647 12.4275 19.7285 12.3731C19.7754 12.3419 19.9117 12.3548 19.9726 12.3378C20.0907 12.3049 20.1789 12.2893 20.2649 12.1997C20.3735 12.0866 19.6567 12.1475 19.5743 12.1643C19.5062 12.1783 19.2581 12.2007 19.2659 12.2061C19.3448 12.2607 19.5712 12.3623 19.5775 12.4823C19.5865 12.6533 19.5663 12.8087 19.5261 12.9738C19.4787 13.1688 19.4705 13.3724 19.4265 13.5648C19.4067 13.6515 19.4092 13.8283 19.2884 13.841C19.014 13.8699 18.7275 13.9646 18.4501 14.0145C18.0529 14.086 18.526 14.0169 18.646 14.0145C18.8653 14.01 19.0886 14.0468 19.3045 14.0787C19.4969 14.1072 19.8053 14.1146 19.9662 14.2233C20.0416 14.2743 20.1311 14.3162 20.2135 14.355C20.2265 14.3611 20.0656 14.1731 20.0304 14.143C19.7886 13.9363 19.4158 13.8127 19.0989 13.8475C18.8782 13.8717 18.6163 13.8796 18.4212 13.9856C18.3176 14.0418 18.2459 14.1211 18.1321 14.159" stroke="black" stroke-linecap="round"/>
<path d="M14.6678 16.8176C14.8437 16.7091 15.0476 16.6393 15.2149 16.5235C15.4045 16.553 15.7137 16.678 15.8994 16.7709C16.0393 16.8408 16.2066 16.9501 16.3324 17.0444C16.5456 17.2043 16.6682 17.5548 16.7653 17.7962C16.9075 18.1496 17.0658 18.6216 16.8643 18.9879C16.858 18.9994 16.8516 19.0107 16.8451 19.0216C16.8312 19.1904 16.794 19.3393 16.6801 19.4855C16.5597 19.64 16.4045 19.735 16.2705 19.869C16.1117 20.0278 15.9142 20.0944 15.685 20.1191C15.4566 20.1438 15.2124 20.1313 14.9867 20.0944C14.7697 20.0589 14.5252 20.0936 14.3201 20.0133C14.1636 19.9521 14.0846 19.8062 13.993 19.6793C13.8652 19.5024 13.6928 19.351 13.6232 19.135C13.5628 18.9474 13.6043 18.641 13.6177 18.4478C13.6548 17.9146 13.8103 17.52 14.2197 17.153C14.3069 17.0748 14.3711 16.9752 14.4727 16.9138C14.5351 16.8761 14.6047 16.8565 14.6678 16.8176Z" fill="#F9BD7D"/>
<path d="M15.1214 15.6713C15.1852 15.7138 15.2375 16.0531 15.2451 16.1413C15.2538 16.2411 15.3056 16.4606 15.2149 16.5235M15.2149 16.5235C15.0476 16.6393 14.8437 16.7091 14.6678 16.8176C14.6047 16.8565 14.5351 16.8761 14.4727 16.9138C14.3711 16.9752 14.3069 17.0748 14.2197 17.153C13.8103 17.52 13.6548 17.9146 13.6177 18.4478C13.6043 18.641 13.5628 18.9474 13.6232 19.135C13.6928 19.351 13.8652 19.5024 13.993 19.6793C14.0846 19.8062 14.1636 19.9521 14.3201 20.0133C14.5252 20.0936 14.7697 20.0589 14.9867 20.0944C15.2124 20.1313 15.4566 20.1438 15.685 20.1191C15.9142 20.0944 16.1117 20.0278 16.2705 19.869C16.4045 19.735 16.5597 19.64 16.6801 19.4855C16.8227 19.3025 16.8451 19.1154 16.8519 18.8903C16.8596 18.636 16.8243 18.3739 16.7543 18.1289C16.6654 17.8175 16.5378 17.5172 16.3942 17.2299C16.2993 17.0402 16.0631 16.9002 15.8884 16.797C15.7932 16.7408 15.69 16.6992 15.5915 16.6499C15.5071 16.6077 15.2149 16.5235 15.2149 16.5235ZM15.2149 16.5235C15.4045 16.553 15.7137 16.678 15.8994 16.7709C16.0393 16.8408 16.2066 16.9501 16.3324 17.0444C16.5456 17.2043 16.6682 17.5548 16.7653 17.7962C16.9075 18.1496 17.0658 18.6216 16.8643 18.9879C16.7803 19.1406 16.6835 19.2435 16.5564 19.359C16.4923 19.4173 16.4289 19.468 16.3598 19.5199C16.3025 19.5629 16.2718 19.6367 16.21 19.6738C16.1573 19.7054 16.0472 19.8394 16.0011 19.7728C15.9298 19.6698 15.9063 19.5516 15.876 19.4305C15.8351 19.267 15.8887 19.1109 15.8142 18.9618" stroke="black" stroke-linecap="round"/>
<path d="M16.8087 8.69531C16.4932 8.67619 15.4384 8.41788 15.6749 7.88586H13.335L12.0613 9.27348C12.2474 9.45957 12.4505 9.6134 12.6395 9.79544C13.1665 10.3033 13.686 10.8627 14.4061 11.0931C15.5566 11.4613 16.8619 12.1241 18.0952 11.713C18.3247 11.6365 18.5991 11.5563 18.8098 11.44C18.9572 11.3587 19.1074 11.2616 19.2403 11.159C19.3338 11.0867 19.4064 10.9834 19.5085 10.9229C19.7664 10.77 20.0418 10.6604 20.3243 10.5615C20.4286 10.525 20.5601 10.8805 20.6054 10.9502C20.7788 11.217 20.9736 11.3774 21.2253 11.5685C21.423 11.7186 21.7822 11.9185 22.0412 11.9315C22.3981 11.9493 22.7032 11.8418 23.0433 11.7757C23.3565 11.7148 23.6665 11.6195 23.9684 11.5171C24.4609 11.35 24.9884 11.3519 25.3817 10.9727C25.6056 10.7568 25.6161 10.377 25.7415 10.1118C25.9111 9.75309 26.1826 9.28535 26.0241 8.87518C25.9523 8.68915 25.8013 8.63906 25.6258 8.57325C25.4625 8.51198 25.3245 8.37947 25.1505 8.32592C25.0668 8.30018 24.999 8.34004 24.9224 8.36125C24.4739 8.48553 24.034 8.657 23.5814 8.76276C23.3287 8.8218 23.1233 8.87605 22.886 8.97154C22.4455 9.14874 21.9234 9.24266 21.4534 9.29596C21.0097 9.34628 20.5364 9.38511 20.0915 9.35378C19.571 9.31713 19.0701 9.13867 18.5529 9.08718C18.1003 9.04212 17.6499 8.9523 17.2167 8.81255C17.0826 8.7693 16.9511 8.70394 16.8087 8.69531Z" fill="#323232" stroke="black" stroke-linecap="round"/>
<path d="M16.8792 2.33384C17.1068 2.32373 17.3264 2.25995 17.5496 2.2203C17.8624 2.14185 18.1802 2.0819 18.4981 2.03351C18.8876 1.97425 19.2615 1.9701 19.6384 2.10418C20.0631 2.25528 20.4819 2.4243 20.904 2.58278C21.0624 2.64227 21.224 2.72907 21.389 2.76908C21.6319 2.82796 21.8906 2.96369 22.0989 3.09992C22.3767 3.28169 22.6791 3.47459 22.9147 3.71021C23.1389 3.93443 23.3117 4.19866 23.5443 4.41687C24.051 4.89219 24.6749 5.15723 25.2483 5.53949L25.268 5.55262C25.6601 5.81398 26.0591 6.07996 26.4111 6.3939C26.5338 6.50339 26.6281 6.55839 26.7114 6.70707C26.7977 6.86123 26.8485 6.88384 26.6648 6.7938C26.4751 6.70078 26.2795 6.57245 26.1012 6.45543L26.0882 6.4469C25.9571 6.36086 25.8108 6.30029 25.6748 6.21944C25.8388 6.34994 25.9977 6.48821 26.1669 6.60911C26.3164 6.71587 26.5121 6.76436 26.6761 6.84519C26.8541 6.93294 27.029 7.01295 27.2109 7.09252C27.5891 7.25801 28.0416 7.44623 28.3383 7.74297C28.7583 8.16292 28.9427 8.67854 29.159 9.21409C29.2773 9.50714 29.4027 9.8448 29.4513 10.1568C29.4851 10.374 29.4641 10.6058 29.4641 10.8249C29.4641 11.0694 29.4593 11.3598 29.371 11.5926C29.3211 11.7241 29.1933 11.8538 29.0963 11.9508C28.7014 12.3457 28.3103 12.5338 27.7393 12.5338C26.947 12.5338 26.146 12.4636 25.3623 12.3539C25.1585 12.3254 24.9513 12.3089 24.7456 12.3089C24.6257 12.3089 24.6344 12.2859 24.6139 12.1708C24.5694 11.9206 24.6107 11.6959 24.736 11.4802C24.8174 11.3399 24.8645 11.3331 24.9865 11.2634C25.1907 11.1467 25.2841 10.9299 25.4169 10.7479C25.6201 10.4694 25.7252 10.2343 25.8441 9.90951C25.9681 9.57086 25.9999 9.09642 25.9228 8.74192C25.8916 8.59844 25.8102 8.47304 25.6996 8.37735C25.3959 8.11474 25.0723 7.87512 24.7681 7.61288C24.5057 7.3867 24.2609 7.1378 24.0165 6.89337C23.8316 6.70851 23.6486 6.56958 23.403 6.46617C22.968 6.28305 22.4112 6.28789 21.9447 6.29593C21.7147 6.29989 21.4806 6.38111 21.2525 6.40835C20.9319 6.44663 20.6171 6.54423 20.2969 6.59786C19.7052 6.69697 19.113 6.69824 18.5206 6.80986C17.9221 6.92262 17.361 7.14002 16.77 7.2724C16.001 7.44465 15.2548 7.66471 14.4766 7.80881C14.135 7.87208 13.7868 8.00154 13.4359 8.00154C13.3504 8.00154 13.362 7.93086 13.362 7.86342C13.362 7.7251 13.4131 7.66708 13.5451 7.60967C13.8452 7.47919 14.1669 7.34959 14.4381 7.16319C14.6635 7.00819 14.8056 6.84999 14.962 6.65298C14.9271 6.67312 14.8921 6.69329 14.8572 6.7135C14.4823 6.93056 14.1166 7.16175 13.7411 7.3784C13.4251 7.56067 13.1799 7.80218 12.9332 8.0706C12.6133 8.41877 12.2157 8.69069 11.8716 9.01495C11.6533 9.22071 11.3568 9.32444 11.0847 9.44055C10.8454 9.54261 10.5907 9.61665 10.3555 9.72481C10.0822 9.85056 9.83891 10.0284 9.575 10.1697C9.27815 10.3286 9.20094 10.6928 9.12852 11.0032C9.04253 11.3717 8.94574 11.7004 8.73022 12.0311C8.58689 12.251 8.40486 12.4227 8.19381 12.5755C8.12944 12.6221 7.99905 12.765 7.91115 12.765C7.80153 12.765 7.68918 12.6424 7.58673 12.6044C7.39729 12.5343 7.03841 12.4997 6.9154 12.3314C6.85941 12.2548 6.79225 12.2227 6.80138 12.1178C6.81907 11.9143 6.94643 11.7276 6.98928 11.5284C7.04492 11.2697 7.12986 11.0201 7.13382 10.7543C7.14023 10.3248 7.34475 9.93568 7.37152 9.51121C7.38955 9.22521 7.16533 8.86556 7.28319 8.58453C7.5006 8.06608 7.87642 7.68588 8.31908 7.36394C8.75227 7.0489 9.22405 6.6461 9.44812 6.14817C9.61984 5.76659 9.82629 5.3928 10.06 5.04643C10.2275 4.7982 10.3603 4.51432 10.5691 4.29642C10.7076 4.15189 10.8923 4.07615 11.0365 3.94148C11.0971 3.88485 11.1375 3.8099 11.2099 3.76642C11.3308 3.69393 11.4546 3.65183 11.5761 3.57209C11.737 3.46652 11.8927 3.35465 12.0354 3.22519C12.0952 3.171 12.1362 3.12499 12.2137 3.09992C12.48 3.01376 12.7648 2.99844 13.028 2.9072C13.2656 2.82484 13.5092 2.81505 13.7555 2.76908C14.3961 2.6495 15.0499 2.61171 15.694 2.51532C16.0916 2.45582 16.4764 2.35174 16.8792 2.33384Z" fill="#3B703E"/>
<path d="M17.785 2.1909C17.4787 2.20893 17.1862 2.3202 16.8792 2.33384C16.4764 2.35174 16.0916 2.45582 15.694 2.51532C15.0499 2.61171 14.3961 2.6495 13.7555 2.76908C13.5092 2.81505 13.2656 2.82484 13.028 2.9072C12.7648 2.99844 12.48 3.01376 12.2137 3.09992C12.1362 3.12499 12.0952 3.171 12.0354 3.22519C11.8927 3.35465 11.737 3.46652 11.5761 3.57209C11.4546 3.65183 11.3308 3.69393 11.2099 3.76642C11.1375 3.8099 11.0971 3.88485 11.0365 3.94148C10.8923 4.07615 10.7076 4.15189 10.5691 4.29642C10.3603 4.51432 10.2275 4.7982 10.06 5.04643C9.82629 5.3928 9.61984 5.76659 9.44812 6.14817C9.22405 6.6461 8.75227 7.0489 8.31908 7.36394C7.87642 7.68588 7.5006 8.06608 7.28319 8.58453C7.16533 8.86556 7.38955 9.22521 7.37152 9.51121C7.34475 9.93568 7.14023 10.3248 7.13382 10.7543C7.12986 11.0201 7.04492 11.2697 6.98928 11.5284C6.94643 11.7276 6.81907 11.9143 6.80138 12.1178C6.79225 12.2227 6.85941 12.2548 6.9154 12.3314C7.03841 12.4997 7.39729 12.5343 7.58673 12.6044C7.68918 12.6424 7.80153 12.765 7.91115 12.765C7.99905 12.765 8.12944 12.6221 8.19381 12.5755C8.40486 12.4227 8.58689 12.251 8.73022 12.0311C8.94574 11.7004 9.04253 11.3717 9.12852 11.0032C9.20094 10.6928 9.27815 10.3286 9.575 10.1697C9.83891 10.0284 10.0822 9.85056 10.3555 9.72481C10.5907 9.61665 10.8454 9.54262 11.0847 9.44055C11.3568 9.32444 11.6533 9.22071 11.8716 9.01495C12.2157 8.69069 12.6133 8.41877 12.9332 8.0706C13.1799 7.80218 13.4251 7.56067 13.7411 7.3784C14.1166 7.16175 14.4823 6.93056 14.8572 6.7135C15.2773 6.4703 15.7026 6.23194 16.1276 5.99721C16.4479 5.82029 16.7391 5.58677 17.072 5.43509C17.3515 5.3077 17.6432 5.24002 17.9392 5.17171C18.372 5.07183 18.7802 4.88056 19.2176 4.7991C19.5755 4.73246 19.9492 4.70596 20.3129 4.70596C20.6369 4.70596 20.958 4.80919 21.2766 4.86335C21.6584 4.92826 22.0421 4.94795 22.4281 4.96774C22.6859 4.98096 22.9404 5.04845 23.1974 5.07534C23.4381 5.10053 23.7001 5.08866 23.9233 5.1958C24.1981 5.32772 24.4596 5.49466 24.7295 5.63746C25.0039 5.78257 25.2837 5.92637 25.5342 6.11124C25.7498 6.2704 25.9499 6.45405 26.1669 6.60911C26.3164 6.71587 26.5121 6.76436 26.6761 6.84519C26.8541 6.93294 27.029 7.01295 27.2109 7.09252C27.5891 7.25801 28.0416 7.44623 28.3383 7.74297C28.7583 8.16292 28.9427 8.67854 29.159 9.21409C29.2773 9.50714 29.4027 9.8448 29.4513 10.1568C29.4851 10.374 29.4641 10.6058 29.4641 10.8249C29.4641 11.0694 29.4593 11.3598 29.371 11.5926C29.3211 11.7241 29.1934 11.8538 29.0963 11.9508C28.7014 12.3457 28.3103 12.5338 27.7393 12.5338C26.947 12.5338 26.146 12.4636 25.3623 12.3539C25.1585 12.3254 24.9513 12.3089 24.7456 12.3089C24.6257 12.3089 24.6344 12.2859 24.6139 12.1708C24.5694 11.9206 24.6107 11.6959 24.736 11.4802C24.8174 11.3399 24.8645 11.3331 24.9865 11.2634C25.1907 11.1467 25.2841 10.9299 25.4169 10.7479C25.6201 10.4694 25.7252 10.2343 25.8441 9.90951C25.9681 9.57086 25.9999 9.09642 25.9228 8.74192C25.8916 8.59844 25.8102 8.47304 25.6996 8.37735C25.3959 8.11474 25.0723 7.87512 24.7681 7.61288C24.5057 7.3867 24.2609 7.1378 24.0165 6.89337C23.8316 6.70851 23.6486 6.56958 23.403 6.46617C22.968 6.28305 22.4112 6.28789 21.9447 6.29593C21.7147 6.29989 21.4806 6.38111 21.2525 6.40835C20.9319 6.44663 20.6171 6.54423 20.2969 6.59786C19.7052 6.69697 19.113 6.69824 18.5206 6.80986C17.9221 6.92262 17.361 7.14002 16.77 7.2724C16.001 7.44465 15.2548 7.66471 14.4766 7.80881C14.135 7.87208 13.7868 8.00154 13.4359 8.00154C13.3504 8.00154 13.362 7.93086 13.362 7.86342C13.362 7.7251 13.4131 7.66708 13.5451 7.60967C13.8452 7.47919 14.1669 7.34959 14.4381 7.16319C14.6982 6.98438 14.8473 6.8013 15.0355 6.55932C15.1297 6.4382 15.3074 6.5224 15.4161 6.3955C15.4598 6.34457 15.5267 6.30499 15.5816 6.26702C15.6955 6.18812 15.7627 6.05755 15.8642 5.96669C16.0233 5.82436 16.2957 5.73571 16.4938 5.66636C16.7262 5.58504 16.9317 5.44716 17.1619 5.35961C17.3695 5.28065 17.6208 5.13365 17.8429 5.11068C18.1819 5.0756 18.5227 5.08938 18.8611 5.04643C19.1484 5.00997 19.4288 4.94227 19.7139 4.89386C20.0362 4.83912 20.3496 4.72111 20.6727 4.68347C20.9553 4.65054 21.2352 4.56463 21.5191 4.54856C22.0184 4.5203 22.3594 4.79891 22.8216 4.91795C23.0639 4.98037 23.325 4.94775 23.5603 5.0111C23.8691 5.09424 24.1647 5.20622 24.4533 5.34516C24.9016 5.561 25.2206 5.92932 25.6321 6.19314C25.7798 6.2878 25.9433 6.35179 26.0882 6.4469C26.27 6.56618 26.4704 6.69852 26.6648 6.7938C26.8485 6.88384 26.7977 6.86123 26.7114 6.70707C26.6281 6.55839 26.5338 6.50339 26.4111 6.3939C26.0532 6.0747 25.6467 5.80508 25.2483 5.53949C24.6749 5.15723 24.051 4.89219 23.5443 4.41687C23.3117 4.19866 23.1389 3.93443 22.9147 3.71021C22.6791 3.47459 22.3767 3.28169 22.0989 3.09992C21.8906 2.96369 21.6319 2.82796 21.389 2.76908C21.224 2.72907 21.0624 2.64227 20.904 2.58278C20.4819 2.4243 20.0631 2.25528 19.6384 2.10418C19.2615 1.9701 18.8876 1.97425 18.4981 2.03351C17.9226 2.12109 17.3475 2.24658 16.8022 2.45108" stroke="black" stroke-linecap="round"/>
</svg>
