<svg width="18" height="18" viewBox="0 0 18 18" fill="none" xmlns="http://www.w3.org/2000/svg">
<path d="M8.99994 17.7389C8.52948 17.7389 8.35901 17.3575 8.35901 16.8871L8.14807 5.52176C8.14807 5.0513 8.52945 4.66992 8.99991 4.66992C9.47037 4.66992 9.85174 5.0513 9.85174 5.52176L9.64081 16.8871C9.64084 17.3575 9.4704 17.7389 8.99994 17.7389Z" fill="#D5DEE4"/>
<path d="M9.00003 4.66992C8.52957 4.66992 8.14819 5.0513 8.14819 5.52176L8.20979 8.84002C8.46372 8.89869 8.72827 8.92966 9.00003 8.92966C9.27179 8.92966 9.53634 8.89869 9.79031 8.84005L9.8519 5.52179C9.85186 5.05133 9.47049 4.66992 9.00003 4.66992Z" fill="#BCCBD3"/>
<path d="M9 7.83984C11.1552 7.83984 12.9023 6.0927 12.9023 3.9375C12.9023 1.78229 11.1552 0.0351562 9 0.0351562C6.84479 0.0351562 5.09766 1.78229 5.09766 3.9375C5.09766 6.0927 6.84479 7.83984 9 7.83984Z" fill="#FF473E"/>
<path d="M6.2053 3.0867C6.5142 3.29106 7.04624 3.03105 7.39365 2.50593C7.74105 1.98082 7.77227 1.38946 7.46337 1.1851C7.15447 0.980734 6.62242 1.24075 6.27502 1.76586C5.92761 2.29098 5.8964 2.88234 6.2053 3.0867Z" fill="#FD7085"/>
</svg>
